<?xml version="1.0" encoding="UTF-8" standalone="no"?>
<!DOCTYPE svg PUBLIC "-//W3C//DTD SVG 1.1//EN" "http://www.w3.org/Graphics/SVG/1.1/DTD/svg11.dtd">
<svg xmlns="http://www.w3.org/2000/svg" version="1.1" viewBox="0.00 0.00 300.00 293.00">
<g stroke-width="2.00" fill="none" stroke-linecap="butt">
<path stroke="#fedb61" vector-effect="non-scaling-stroke" d="
  M 293.03 139.52
  L 293.05 138.38
  A 0.57 0.49 63.9 0 1 293.12 138.11
  L 295.00 135.12
  A 0.83 0.82 44.7 0 0 294.99 134.22
  L 267.76 92.95"
/>
<path stroke="#fbd767" vector-effect="non-scaling-stroke" d="
  M 267.76 92.95
  L 228.88 59.17"
/>
<path stroke="#fedb61" vector-effect="non-scaling-stroke" d="
  M 228.88 59.17
  L 203.03 37.01"
/>
<path stroke="#fbd767" vector-effect="non-scaling-stroke" d="
  M 203.03 37.01
  Q 197.32 31.31 191.28 27.23
  Q 174.36 15.79 157.07 4.94"
/>
<path stroke="#f8ce5f" vector-effect="non-scaling-stroke" d="
  M 157.07 4.94
  L 151.44 1.22
  Q 150.99 0.92 150.53 1.20
  L 147.75 2.89"
/>
<path stroke="#fbd767" vector-effect="non-scaling-stroke" d="
  M 147.75 2.89
  Q 129.84 14.60 112.06 26.06
  Q 105.71 30.16 97.40 37.88"
/>
<path stroke="#fedb61" vector-effect="non-scaling-stroke" d="
  M 97.40 37.88
  L 62.12 68.67"
/>
<path stroke="#fbd767" vector-effect="non-scaling-stroke" d="
  M 62.12 68.67
  Q 49.80 79.13 38.02 89.77
  Q 37.57 90.17 36.72 89.93"
/>
<path stroke="#f4b634" vector-effect="non-scaling-stroke" d="
  M 157.07 4.94
  Q 155.85 6.06 156.31 7.19
  Q 163.99 25.74 171.35 43.59"
/>
<path stroke="#f7ba2e" vector-effect="non-scaling-stroke" d="
  M 171.35 43.59
  L 151.33 55.10"
/>
<path stroke="#f8d696" vector-effect="non-scaling-stroke" d="
  M 151.33 55.10
  C 137.51 54.43 125.57 63.04 119.25 74.72"
/>
<path stroke="#f7ba2e" vector-effect="non-scaling-stroke" d="
  M 119.25 74.72
  Q 118.28 74.49 117.42 75.21"
/>
<path stroke="#f8c133" vector-effect="non-scaling-stroke" d="
  M 117.42 75.21
  Q 117.20 75.33 116.98 75.45"
/>
<path stroke="#f7ba2e" vector-effect="non-scaling-stroke" d="
  M 116.98 75.45
  Q 116.92 73.63 117.19 73.56"
/>
<path stroke="#f4b634" vector-effect="non-scaling-stroke" d="
  M 117.19 73.56
  Q 133.17 37.54 147.56 7.81
  Q 148.98 4.88 147.75 2.89"
/>
<path stroke="#fac335" vector-effect="non-scaling-stroke" d="
  M 117.19 73.56
  L 116.21 72.87
  Q 115.80 72.59 115.58 72.14
  Q 108.44 57.72 101.63 43.14
  C 101.13 42.06 99.97 41.21 99.96 39.63
  A 1.41 1.39 25.6 0 0 99.64 38.74
  Q 98.91 37.85 97.40 37.88"
/>
<path stroke="#fac335" vector-effect="non-scaling-stroke" d="
  M 203.03 37.01
  L 196.16 34.90
  A 0.83 0.81 -68.4 0 0 195.19 35.33
  C 194.29 37.17 192.71 36.97 191.64 38.10
  C 190.67 39.14 190.23 40.49 189.20 41.40
  Q 183.77 46.22 176.87 48.57
  Q 176.40 48.72 176.05 49.07
  L 175.70 49.43
  A 1.59 1.59 0.0 0 1 173.06 48.80
  L 171.35 43.59"
/>
<path stroke="#fac335" vector-effect="non-scaling-stroke" d="
  M 228.88 59.17
  Q 228.04 60.70 228.12 61.88"
/>
<path stroke="#fece35" vector-effect="non-scaling-stroke" d="
  M 228.12 61.88
  Q 227.39 58.92 225.65 57.62
  Q 225.24 57.31 224.85 57.65
  Q 221.87 60.22 219.56 60.84
  C 215.79 61.84 211.34 66.60 208.94 69.24
  C 204.49 74.14 197.02 81.86 191.62 83.58
  Q 191.11 83.75 191.07 84.28
  Q 190.98 85.67 190.14 86.26"
/>
<path stroke="#fee397" vector-effect="non-scaling-stroke" d="
  M 190.14 86.26
  C 185.50 68.28 170.79 53.82 151.33 55.10"
/>
<path stroke="#fece35" vector-effect="non-scaling-stroke" d="
  M 116.98 75.45
  Q 116.15 74.86 115.89 74.02
  A 1.42 1.42 0.0 0 0 113.86 73.19
  Q 112.87 73.72 113.00 75.02
  Q 113.05 75.54 112.70 75.92
  C 109.84 79.13 106.80 78.71 103.58 80.02
  C 101.47 80.87 99.79 81.85 97.43 82.24
  Q 96.21 82.44 95.19 83.24
  A 0.85 0.84 40.2 0 1 94.25 83.31
  Q 92.80 82.49 91.94 83.69
  Q 91.63 84.12 91.12 84.26
  L 75.43 88.75"
/>
<path stroke="#fac335" vector-effect="non-scaling-stroke" d="
  M 75.43 88.75
  L 62.12 68.67"
/>
<path stroke="#ffea9d" vector-effect="non-scaling-stroke" d="
  M 190.14 86.26
  Q 192.92 99.89 186.92 113.29"
/>
<path stroke="#fff7c9" vector-effect="non-scaling-stroke" d="
  M 186.92 113.29
  Q 183.85 118.64 179.03 123.58"
/>
<path stroke="#b7e3e2" vector-effect="non-scaling-stroke" d="
  M 179.03 123.58
  L 173.60 117.65"
/>
<path stroke="#c3e9e3" vector-effect="non-scaling-stroke" d="
  M 173.60 117.65
  Q 157.86 100.79 142.33 83.80
  C 140.93 82.27 139.18 81.71 137.42 80.42"
/>
<path stroke="#8596ae" vector-effect="non-scaling-stroke" d="
  M 137.42 80.42
  L 116.66 108.80"
/>
<path stroke="#ffea9d" vector-effect="non-scaling-stroke" d="
  M 116.66 108.80
  Q 114.19 102.48 114.29 96.03"
/>
<path stroke="#fee397" vector-effect="non-scaling-stroke" d="
  M 114.29 96.03
  Q 113.99 84.49 119.25 74.72"
/>
<path stroke="#fbc93b" vector-effect="non-scaling-stroke" d="
  M 228.12 61.88
  L 226.32 92.55"
/>
<path stroke="#fece35" vector-effect="non-scaling-stroke" d="
  M 226.32 92.55
  L 226.32 119.14"
/>
<path stroke="#ffe266" vector-effect="non-scaling-stroke" d="
  M 226.32 119.14
  Q 222.41 117.22 218.61 116.92
  Q 217.99 116.87 218.08 117.48
  L 218.43 120.02
  Q 218.48 120.39 218.11 120.37
  Q 214.39 120.21 212.53 123.36
  C 211.70 124.78 210.23 125.95 210.21 128.04
  Q 210.20 128.59 209.69 128.81
  Q 208.12 129.50 208.82 131.44
  A 0.23 0.23 0.0 0 1 208.41 131.63
  L 194.21 108.98
  A 1.19 1.19 0.0 0 0 192.45 108.70
  L 186.92 113.29"
/>
<path stroke="#fac335" vector-effect="non-scaling-stroke" d="
  M 267.76 92.95
  Q 265.80 92.67 261.25 93.03
  Q 255.84 93.45 237.83 91.72
  C 235.26 91.47 232.25 92.00 229.33 91.45
  A 1.50 1.49 37.5 0 0 228.41 91.57
  L 226.32 92.55"
/>
<path stroke="#fbc93b" vector-effect="non-scaling-stroke" d="
  M 75.43 88.75
  Q 75.14 89.66 75.22 90.27"
/>
<path stroke="#f4b634" vector-effect="non-scaling-stroke" d="
  M 75.22 90.27
  L 75.01 90.00
  Q 74.78 89.70 74.41 89.78
  Q 58.02 93.39 41.49 96.29
  Q 40.84 96.40 37.21 97.42
  Q 33.41 98.50 32.70 95.97"
/>
<path stroke="#fbd767" vector-effect="non-scaling-stroke" d="
  M 32.70 95.97
  Q 34.94 93.55 35.01 91.70"
/>
<path stroke="#fece35" vector-effect="non-scaling-stroke" d="
  M 117.42 75.21
  C 115.60 77.13 113.97 78.49 112.56 80.86
  Q 110.15 84.88 104.79 92.30
  Q 103.65 93.88 102.49 94.50
  A 0.99 0.98 -41.5 0 1 101.47 94.44
  C 99.23 92.90 97.35 93.70 95.30 93.20
  Q 93.12 92.67 91.01 91.89
  C 89.50 91.33 88.20 91.73 86.70 91.21
  C 83.36 90.06 80.14 89.83 77.54 92.39"
/>
<path stroke="#fbc93b" vector-effect="non-scaling-stroke" d="
  M 77.54 92.39
  L 75.66 90.82"
/>
<path stroke="#f8c133" vector-effect="non-scaling-stroke" d="
  M 75.66 90.82
  L 75.22 90.27"
/>
<path stroke="#fece35" vector-effect="non-scaling-stroke" d="
  M 114.29 96.03
  L 104.76 94.84
  Q 104.20 94.77 103.94 95.28
  L 89.84 123.58
  A 1.16 1.15 -43.4 0 0 89.81 124.53
  Q 90.52 126.18 89.37 126.43"
/>
<path stroke="#fac335" vector-effect="non-scaling-stroke" d="
  M 89.37 126.43
  Q 89.92 125.85 89.04 125.49
  A 0.62 0.61 35.0 0 0 88.38 125.60
  L 65.90 146.16
  Q 65.49 146.54 65.43 147.08
  Q 65.36 147.68 65.53 148.25"
/>
<path stroke="#fece35" vector-effect="non-scaling-stroke" d="
  M 65.53 148.25
  L 65.00 148.05
  Q 64.48 147.86 64.23 148.35
  C 60.03 156.71 54.47 165.48 50.85 174.37
  A 0.76 0.76 0.0 0 1 50.45 174.77
  Q 50.15 174.90 49.98 175.21
  Q 46.52 181.53 44.39 188.42
  Q 44.24 188.90 43.83 189.19
  C 41.17 191.06 39.14 195.09 35.84 190.60"
/>
<path stroke="#fedb61" vector-effect="non-scaling-stroke" d="
  M 35.84 190.60
  Q 34.41 189.50 34.19 189.06
  Q 23.59 168.25 13.88 148.18"
/>
<path stroke="#fac335" vector-effect="non-scaling-stroke" d="
  M 13.88 148.18
  Q 34.31 133.91 55.36 121.39
  C 56.14 120.92 56.85 119.73 58.00 119.99
  C 61.95 120.88 66.05 120.92 69.32 121.50
  Q 75.12 122.51 81.00 122.99
  Q 81.66 123.05 82.15 122.67
  Q 82.70 122.25 82.01 122.25
  L 81.00 122.25
  A 0.26 0.26 0.0 0 1 80.81 121.81
  L 81.04 121.59
  A 1.01 1.00 19.9 0 1 81.67 121.30
  L 83.71 121.18
  A 0.62 0.62 0.0 0 0 84.26 120.38
  Q 83.44 117.73 85.95 117.23
  A 0.83 0.83 0.0 0 1 86.90 117.80
  L 87.14 118.57
  A 0.24 0.24 0.0 0 0 87.59 118.43
  C 85.86 112.63 83.26 107.01 81.27 101.47
  Q 79.65 96.96 77.54 92.39"
/>
<path stroke="#498091" vector-effect="non-scaling-stroke" d="
  M 137.42 80.42
  L 135.12 93.94
  Q 135.03 94.44 135.34 94.85
  L 157.75 125.27"
/>
<path stroke="#3c7a91" vector-effect="non-scaling-stroke" d="
  M 157.75 125.27
  L 165.42 135.56"
/>
<path stroke="#32738f" vector-effect="non-scaling-stroke" d="
  M 165.42 135.56
  Q 175.78 150.23 178.81 153.69
  Q 182.17 157.51 192.15 164.99"
/>
<path stroke="#21688b" vector-effect="non-scaling-stroke" d="
  M 192.15 164.99
  L 209.07 178.81"
/>
<path stroke="#125c84" vector-effect="non-scaling-stroke" d="
  M 209.07 178.81
  L 246.69 208.74"
/>
<path stroke="#498091" vector-effect="non-scaling-stroke" d="
  M 246.69 208.74
  Q 240.46 215.35 231.91 222.16"
/>
<path stroke="#06507c" vector-effect="non-scaling-stroke" d="
  M 231.91 222.16
  L 226.50 218.30"
/>
<path stroke="#125c84" vector-effect="non-scaling-stroke" d="
  M 226.50 218.30
  Q 219.44 214.22 214.44 209.46"
/>
<path stroke="#06507c" vector-effect="non-scaling-stroke" d="
  M 214.44 209.46
  Q 212.63 205.32 209.22 201.74"
/>
<path stroke="#125c84" vector-effect="non-scaling-stroke" d="
  M 209.22 201.74
  L 186.48 172.34"
/>
<path stroke="#21688b" vector-effect="non-scaling-stroke" d="
  M 186.48 172.34
  L 169.01 149.47"
/>
<path stroke="#32738f" vector-effect="non-scaling-stroke" d="
  M 169.01 149.47
  L 159.90 137.90"
/>
<path stroke="#3c7a91" vector-effect="non-scaling-stroke" d="
  M 159.90 137.90
  L 148.95 124.00"
/>
<path stroke="#498091" vector-effect="non-scaling-stroke" d="
  M 148.95 124.00
  L 139.81 112.57
  Q 139.44 112.11 138.96 112.45
  L 136.42 114.24
  Q 135.92 114.59 136.21 115.12
  L 141.55 124.99"
/>
<path stroke="#3c7a91" vector-effect="non-scaling-stroke" d="
  M 141.55 124.99
  L 152.10 143.43"
/>
<path stroke="#32738f" vector-effect="non-scaling-stroke" d="
  M 152.10 143.43
  L 156.99 152.16"
/>
<path stroke="#21688b" vector-effect="non-scaling-stroke" d="
  M 156.99 152.16
  L 170.77 175.77"
/>
<path stroke="#125c84" vector-effect="non-scaling-stroke" d="
  M 170.77 175.77
  L 185.41 200.16"
/>
<path stroke="#06507c" vector-effect="non-scaling-stroke" d="
  M 185.41 200.16
  L 189.23 206.66"
/>
<path stroke="#125c84" vector-effect="non-scaling-stroke" d="
  M 189.23 206.66
  L 182.23 206.30"
/>
<path stroke="#06507c" vector-effect="non-scaling-stroke" d="
  M 182.23 206.30
  L 174.43 194.47"
/>
<path stroke="#125c84" vector-effect="non-scaling-stroke" d="
  M 174.43 194.47
  L 156.09 165.33"
/>
<path stroke="#21688b" vector-effect="non-scaling-stroke" d="
  M 156.09 165.33
  L 147.38 151.50"
/>
<path stroke="#32738f" vector-effect="non-scaling-stroke" d="
  M 147.38 151.50
  L 141.85 142.80"
/>
<path stroke="#3c7a91" vector-effect="non-scaling-stroke" d="
  M 141.85 142.80
  Q 138.06 136.70 134.20 130.84
  Q 133.64 129.99 132.85 129.62
  Q 131.32 128.91 130.93 129.55"
/>
<path stroke="#125c84" vector-effect="non-scaling-stroke" d="
  M 130.93 129.55
  L 112.01 157.58"
/>
<path stroke="#06507c" vector-effect="non-scaling-stroke" d="
  M 112.01 157.58
  L 92.69 186.44"
/>
<path stroke="#054b78" vector-effect="non-scaling-stroke" d="
  M 92.69 186.44
  L 80.44 204.55"
/>
<path stroke="#05416f" vector-effect="non-scaling-stroke" d="
  M 80.44 204.55
  L 69.10 221.86"
/>
<path stroke="#498091" vector-effect="non-scaling-stroke" d="
  M 69.10 221.86
  Q 54.82 209.04 40.69 196.06
  Q 39.37 194.86 39.22 194.07"
/>
<path stroke="#85814b" vector-effect="non-scaling-stroke" d="
  M 39.22 194.07
  Q 55.86 183.26 72.47 172.54
  Q 74.49 171.24 75.76 169.21
  Q 86.59 151.96 97.49 134.74
  Q 101.08 129.09 116.66 108.80"
/>
<path stroke="#7bcdc6" vector-effect="non-scaling-stroke" d="
  M 173.60 117.65
  Q 171.39 120.00 166.42 119.77
  Q 162.33 119.57 158.04 120.09
  A 1.23 1.22 -31.4 0 0 157.50 122.32
  Q 158.31 122.87 158.86 124.36
  Q 159.19 125.24 157.75 125.27"
/>
<path stroke="#f4b634" vector-effect="non-scaling-stroke" d="
  M 75.66 90.82
  L 73.46 99.21
  Q 73.33 99.71 72.97 100.07
  C 72.15 100.88 71.39 101.69 70.78 102.68
  Q 65.68 110.95 58.90 118.12
  Q 58.00 119.07 58.00 117.76
  L 58.00 116.00
  Q 58.00 115.75 57.75 115.75
  Q 57.61 115.75 57.46 115.73
  A 0.21 0.20 -78.3 0 0 57.24 115.88
  L 56.88 117.23
  Q 56.66 118.05 55.91 117.65
  L 45.82 112.24
  Q 45.31 111.97 44.75 112.12
  Q 43.70 112.40 43.27 111.42
  Q 43.05 110.91 42.49 110.90
  Q 39.94 110.81 38.12 112.48
  Q 37.74 112.83 37.25 112.95
  Q 34.85 113.51 33.46 115.57
  Q 33.19 115.97 32.77 116.20
  L 30.36 117.50
  Q 30.02 117.67 29.65 117.61
  L 28.87 117.47
  Q 28.37 117.39 28.21 117.87
  Q 27.48 120.09 25.17 120.04
  A 0.92 0.92 0.0 0 0 24.31 120.60
  L 23.81 121.82
  Q 23.55 122.43 22.89 122.54
  Q 20.72 122.88 20.99 124.92
  Q 21.06 125.48 20.53 125.66
  Q 17.88 126.60 16.34 129.03
  C 15.13 130.93 12.70 131.85 12.17 134.61
  A 1.16 1.13 80.9 0 1 11.62 135.39
  Q 8.86 137.00 10.94 139.69
  Q 11.01 139.78 10.96 139.88
  L 10.77 140.20
  Q 10.65 140.39 10.52 140.21
  Q 10.28 139.87 9.97 140.06"
/>
<path stroke="#f8ce5f" vector-effect="non-scaling-stroke" d="
  M 9.97 140.06
  L 7.57 134.94
  Q 7.34 134.44 7.64 133.98
  L 32.70 95.97"
/>
<path stroke="#fbd767" vector-effect="non-scaling-stroke" d="
  M 13.88 148.18
  L 9.97 140.06"
/>
<path stroke="#fece35" vector-effect="non-scaling-stroke" d="
  M 291.52 142.12
  Q 289.10 144.22 287.57 147.38
  A 0.79 0.79 0.0 0 1 286.73 147.81
  Q 285.60 147.62 285.48 146.42
  Q 285.44 145.97 284.99 146.01
  L 275.54 146.84
  Q 275.08 146.89 274.73 147.19
  L 267.71 153.45
  Q 267.33 153.78 266.83 153.86
  C 264.07 154.26 257.72 153.99 256.07 156.57
  Q 253.40 160.73 249.51 163.89
  A 0.49 0.48 -15.7 0 1 248.72 163.45
  L 248.87 162.37
  Q 248.93 161.92 248.59 161.63
  Q 246.78 160.01 245.23 156.79
  Q 239.20 144.20 226.21 120.15"
/>
<path stroke="#fedb61" vector-effect="non-scaling-stroke" d="
  M 226.21 120.15
  L 226.32 119.14"
/>
<path stroke="#ffe266" vector-effect="non-scaling-stroke" d="
  M 35.84 190.60
  Q 35.15 190.79 35.17 191.31"
/>
<path stroke="#c3d480" vector-effect="non-scaling-stroke" d="
  M 39.22 194.07
  L 38.03 194.27"
/>
<path stroke="#fbc93b" vector-effect="non-scaling-stroke" d="
  M 65.53 148.25
  L 71.18 170.00
  A 1.02 1.01 66.7 0 0 72.70 170.61
  Q 73.34 170.21 73.28 169.67
  Q 73.24 169.23 73.54 168.91
  Q 75.83 166.55 77.22 162.48
  Q 83.37 144.47 89.37 126.43"
/>
<path stroke="#ffe266" vector-effect="non-scaling-stroke" d="
  M 226.21 120.15
  L 226.19 159.80"
/>
<path stroke="#acd4aa" vector-effect="non-scaling-stroke" d="
  M 226.19 159.80
  Q 215.54 154.58 204.95 149.17
  C 199.62 146.44 195.08 140.59 191.00 136.25"
/>
<path stroke="#b7dbac" vector-effect="non-scaling-stroke" d="
  M 191.00 136.25
  L 179.03 123.58"
/>
<path stroke="#7bcdc6" vector-effect="non-scaling-stroke" d="
  M 148.95 124.00
  L 145.48 123.41
  Q 144.83 123.30 144.36 123.76
  L 143.76 124.36
  Q 143.63 124.50 143.48 124.37
  Q 143.15 124.09 142.95 124.10
  A 0.18 0.18 0.0 0 0 142.79 124.37
  L 142.99 124.71
  A 0.19 0.19 0.0 0 1 142.83 124.99
  L 141.55 124.99"
/>
<path stroke="#64c0c4" vector-effect="non-scaling-stroke" d="
  M 191.00 136.25
  Q 181.81 134.43 177.25 134.69
  Q 171.20 135.03 168.14 134.67
  Q 167.67 134.61 167.30 134.90
  Q 166.57 135.47 165.42 135.56"
/>
<path stroke="#c3d480" vector-effect="non-scaling-stroke" d="
  M 268.33 179.81
  Q 266.71 179.94 266.98 180.20"
/>
<path stroke="#8cb073" vector-effect="non-scaling-stroke" d="
  M 266.98 180.20
  L 257.53 175.65"
/>
<path stroke="#9cbb7a" vector-effect="non-scaling-stroke" d="
  M 257.53 175.65
  L 228.80 161.14"
/>
<path stroke="#acc77e" vector-effect="non-scaling-stroke" d="
  M 228.80 161.14
  L 226.19 159.80"
/>
<path stroke="#64c0c4" vector-effect="non-scaling-stroke" d="
  M 159.90 137.90
  Q 156.32 137.03 151.73 138.01
  A 1.02 1.02 0.0 0 0 151.10 139.59
  Q 152.51 141.61 152.10 143.43"
/>
<path stroke="#64c0c4" vector-effect="non-scaling-stroke" d="
  M 141.85 142.80
  Q 140.60 143.65 139.61 141.05
  Q 139.42 140.54 138.97 140.23
  Q 137.30 139.06 136.60 137.18
  A 0.56 0.31 42.0 0 0 135.72 136.98
  Q 135.95 137.72 135.49 138.01
  Q 135.05 138.30 135.04 138.82
  Q 135.01 140.09 133.68 140.56
  Q 133.21 140.72 133.39 140.26
  L 134.36 137.70
  Q 134.49 137.35 134.33 137.02
  Q 134.11 136.54 133.64 136.49
  A 0.26 0.26 0.0 0 0 133.48 136.97
  L 133.81 137.17
  Q 134.11 137.34 133.91 137.64
  Q 133.18 138.75 131.88 139.37"
/>
<path stroke="#44a9b9" vector-effect="non-scaling-stroke" d="
  M 131.88 139.37
  L 130.93 129.55"
/>
<path stroke="#39a2b7" vector-effect="non-scaling-stroke" d="
  M 131.88 139.37
  L 132.81 151.23"
/>
<path stroke="#2997b3" vector-effect="non-scaling-stroke" d="
  M 132.81 151.23
  Q 132.57 154.85 134.01 157.05"
/>
<path stroke="#125c84" vector-effect="non-scaling-stroke" d="
  M 134.01 157.05
  Q 132.82 158.26 132.46 160.46"
/>
<path stroke="#0d7fa4" vector-effect="non-scaling-stroke" d="
  M 132.46 160.46
  Q 130.43 161.39 129.48 160.20
  Q 129.43 160.13 129.39 160.21
  Q 129.31 160.35 129.18 160.41
  Q 128.41 160.78 128.38 160.78
  Q 119.92 160.22 112.01 157.58"
/>
<path stroke="#49aebe" vector-effect="non-scaling-stroke" d="
  M 228.80 161.14
  Q 227.67 161.45 226.53 160.78
  Q 226.13 160.54 225.92 160.96
  Q 224.99 162.81 222.98 162.26
  C 219.35 161.26 216.85 162.00 213.75 161.41
  C 206.15 159.96 199.33 161.73 191.74 161.50
  A 0.48 0.48 0.0 0 0 191.27 162.12
  L 192.15 164.99"
/>
<path stroke="#49aebe" vector-effect="non-scaling-stroke" d="
  M 147.38 151.50
  C 145.89 151.95 144.94 149.92 143.55 149.38
  Q 143.05 149.19 143.01 149.72
  L 142.96 150.40
  A 0.34 0.34 0.0 0 1 142.29 150.43
  Q 142.05 149.06 140.72 148.55
  Q 140.02 148.28 139.66 148.93
  Q 139.05 150.02 138.02 149.63
  A 0.58 0.57 -60.2 0 0 137.38 149.81
  L 135.97 151.51
  Q 135.57 152.00 135.31 151.43
  Q 135.17 151.13 135.41 150.96
  Q 135.76 150.71 135.36 150.55
  Q 134.71 150.29 134.47 150.78
  Q 134.24 151.26 133.72 151.25
  L 132.81 151.23"
/>
<path stroke="#49aebe" vector-effect="non-scaling-stroke" d="
  M 169.01 149.47
  Q 168.32 149.90 167.44 149.71
  A 0.89 0.88 83.0 0 1 166.82 149.22
  Q 166.54 148.64 165.95 148.57
  C 164.47 148.39 162.80 150.21 160.05 149.64
  A 1.00 0.99 -62.5 0 0 159.13 149.93
  L 156.99 152.16"
/>
<path stroke="#2997b3" vector-effect="non-scaling-stroke" d="
  M 156.09 165.33
  Q 150.20 167.88 143.56 167.73
  A 1.45 1.43 -63.5 0 0 142.63 168.05
  Q 141.13 169.24 139.49 169.63"
/>
<path stroke="#21688b" vector-effect="non-scaling-stroke" d="
  M 139.49 169.63
  L 134.01 157.05"
/>
<path stroke="#2997b3" vector-effect="non-scaling-stroke" d="
  M 186.48 172.34
  L 173.34 173.46
  A 1.11 1.09 -70.5 0 0 172.60 173.82
  L 170.77 175.77"
/>
<path stroke="#06507c" vector-effect="non-scaling-stroke" d="
  M 132.46 160.46
  L 122.42 188.62"
/>
<path stroke="#016e98" vector-effect="non-scaling-stroke" d="
  M 122.42 188.62
  Q 120.49 190.22 121.75 185.69
  A 0.55 0.55 0.0 0 0 121.30 185.00
  Q 120.54 184.90 120.14 185.47
  Q 119.83 185.91 119.29 185.95
  Q 111.61 186.47 104.01 187.54
  Q 101.04 187.96 92.69 186.44"
/>
<path stroke="#125c84" vector-effect="non-scaling-stroke" d="
  M 139.49 169.63
  L 151.12 195.80"
/>
<path stroke="#06507c" vector-effect="non-scaling-stroke" d="
  M 151.12 195.80
  L 158.67 212.83"
/>
<path stroke="#125c84" vector-effect="non-scaling-stroke" d="
  M 158.67 212.83
  L 159.35 215.90
  Q 159.47 216.41 159.91 216.68
  L 183.87 231.65"
/>
<path stroke="#06507c" vector-effect="non-scaling-stroke" d="
  M 183.87 231.65
  L 205.61 245.16"
/>
<path stroke="#498091" vector-effect="non-scaling-stroke" d="
  M 205.61 245.16
  L 184.75 263.35"
/>
<path stroke="#06507c" vector-effect="non-scaling-stroke" d="
  M 184.75 263.35
  L 181.49 258.43"
/>
<path stroke="#125c84" vector-effect="non-scaling-stroke" d="
  M 181.49 258.43
  L 168.13 237.80"
/>
<path stroke="#21688b" vector-effect="non-scaling-stroke" d="
  M 168.13 237.80
  L 156.70 220.01
  Q 156.38 219.51 155.82 219.32
  L 153.22 218.44
  A 0.43 0.43 0.0 0 0 152.68 218.99
  L 152.84 219.42"
/>
<path stroke="#05416f" vector-effect="non-scaling-stroke" d="
  M 152.84 219.42
  L 152.18 219.65
  Q 151.72 219.81 151.48 220.24
  L 134.14 252.47"
/>
<path stroke="#063c6a" vector-effect="non-scaling-stroke" d="
  M 134.14 252.47
  L 124.19 271.58"
/>
<path stroke="#498091" vector-effect="non-scaling-stroke" d="
  M 124.19 271.58
  L 99.89 249.74"
/>
<path stroke="#05416f" vector-effect="non-scaling-stroke" d="
  M 99.89 249.74
  L 117.00 203.71"
/>
<path stroke="#054b78" vector-effect="non-scaling-stroke" d="
  M 117.00 203.71
  L 122.42 188.62"
/>
<path stroke="#2997b3" vector-effect="non-scaling-stroke" d="
  M 257.53 175.65
  Q 256.91 175.73 256.50 176.22
  Q 255.97 176.85 256.72 177.18
  L 257.07 177.33
  A 0.45 0.45 0.0 0 1 257.17 178.09
  Q 255.79 179.22 254.07 178.66
  Q 253.54 178.49 252.98 178.52
  Q 250.75 178.62 248.07 177.97
  C 242.14 176.53 234.98 177.24 230.46 177.15
  Q 222.88 176.99 215.33 177.18
  C 213.04 177.24 211.19 178.02 209.07 178.81"
/>
<path stroke="#0d7fa4" vector-effect="non-scaling-stroke" d="
  M 174.43 194.47
  Q 163.12 195.82 152.00 195.21
  Q 151.54 195.18 151.12 195.80"
/>
<path stroke="#0d7fa4" vector-effect="non-scaling-stroke" d="
  M 209.22 201.74
  Q 208.82 202.08 207.71 201.37
  Q 207.19 201.04 206.93 200.48
  Q 205.27 196.91 201.48 199.31
  A 1.96 1.96 0.0 0 1 200.28 199.61
  Q 197.66 199.38 195.35 200.36
  Q 195.04 200.48 194.92 200.18
  Q 194.50 199.21 193.48 199.44
  Q 190.44 200.16 188.28 199.10
  Q 187.82 198.87 187.36 199.11
  L 185.41 200.16"
/>
<path stroke="#50afb9" vector-effect="non-scaling-stroke" d="
  M 266.98 180.20
  L 246.69 208.74"
/>
<path stroke="#c3e9e3" vector-effect="non-scaling-stroke" d="
  M 160.30 285.61
  Q 159.76 285.48 159.73 285.27"
/>
<path stroke="#448f9f" vector-effect="non-scaling-stroke" d="
  M 159.73 285.27
  L 172.01 274.91"
/>
<path stroke="#44a3b1" vector-effect="non-scaling-stroke" d="
  M 172.01 274.91
  L 184.75 263.35"
/>
<path stroke="#44a3b1" vector-effect="non-scaling-stroke" d="
  M 205.61 245.16
  L 231.91 222.16"
/>
<path stroke="#005f8b" vector-effect="non-scaling-stroke" d="
  M 117.00 203.71
  Q 112.98 203.88 108.97 204.87
  C 102.90 206.37 97.66 206.41 91.75 206.78
  Q 87.66 207.03 80.44 204.55"
/>
<path stroke="#0d7fa4" vector-effect="non-scaling-stroke" d="
  M 182.23 206.30
  L 158.67 212.83"
/>
<path stroke="#4494a4" vector-effect="non-scaling-stroke" d="
  M 69.10 221.86
  L 99.89 249.74"
/>
<path stroke="#448f9f" vector-effect="non-scaling-stroke" d="
  M 124.19 271.58
  L 149.49 293.00"
/>
<path stroke="#0d7fa4" vector-effect="non-scaling-stroke" d="
  M 214.44 209.46
  L 189.23 206.66"
/>
<path stroke="#0d7fa4" vector-effect="non-scaling-stroke" d="
  M 226.50 218.30
  Q 220.99 221.50 215.09 221.13
  A 0.60 0.43 27.9 0 0 214.94 221.15
  L 210.04 222.77
  Q 209.47 222.96 208.97 223.31
  Q 206.15 225.32 202.58 224.75
  A 2.17 2.13 -51.0 0 0 201.45 224.88
  Q 195.82 227.14 189.73 227.64
  Q 189.14 227.69 188.73 228.11
  Q 187.49 229.39 185.75 229.55
  Q 185.25 229.60 184.97 230.02
  L 183.87 231.65"
/>
<path stroke="#2997b3" vector-effect="non-scaling-stroke" d="
  M 168.13 237.80
  Q 167.15 239.21 165.27 238.51
  A 1.59 1.50 49.4 0 0 164.50 238.43
  Q 161.14 238.90 160.35 241.00"
/>
<path stroke="#1c7c9e" vector-effect="non-scaling-stroke" d="
  M 160.35 241.00
  L 152.84 219.42"
/>
<path stroke="#0d7097" vector-effect="non-scaling-stroke" d="
  M 160.35 241.00
  L 163.44 250.14"
/>
<path stroke="#01507d" vector-effect="non-scaling-stroke" d="
  M 163.44 250.14
  Q 161.74 250.91 160.30 250.56
  A 0.45 0.44 6.7 0 0 159.75 250.99
  L 159.75 251.50
  Q 159.75 251.82 159.43 251.80
  Q 158.13 251.73 158.73 250.80
  A 0.34 0.34 0.0 0 0 158.19 250.40
  Q 157.00 251.81 155.47 251.15
  Q 154.90 250.90 154.41 251.29
  Q 153.57 251.96 152.44 251.77
  Q 151.86 251.67 151.49 252.14
  Q 150.13 253.90 147.70 253.13
  A 1.36 1.35 40.8 0 0 146.71 253.20
  Q 144.36 254.33 142.00 253.30
  Q 141.53 253.09 141.17 253.46
  L 140.69 253.93
  Q 140.27 254.36 140.03 253.80
  Q 139.70 253.01 138.90 253.16
  Q 138.31 253.28 138.56 253.83
  Q 139.08 254.99 137.64 255.32
  Q 137.07 255.45 137.03 254.86
  L 136.96 253.60
  A 0.42 0.42 0.0 0 0 136.12 253.58
  L 135.93 255.29
  A 0.51 0.50 80.5 0 1 135.65 255.69
  L 135.19 255.91
  A 0.43 0.43 0.0 0 1 134.59 255.43
  Q 134.95 253.85 134.14 252.47"
/>
<path stroke="#0d7fa4" vector-effect="non-scaling-stroke" d="
  M 181.49 258.43
  Q 173.73 257.12 166.36 258.74"
/>
<path stroke="#0d6b92" vector-effect="non-scaling-stroke" d="
  M 166.36 258.74
  L 163.44 250.14"
/>
<path stroke="#015f8a" vector-effect="non-scaling-stroke" d="
  M 166.36 258.74
  L 172.01 274.91"
/>
<path stroke="#80a5bc" vector-effect="non-scaling-stroke" d="
  M 159.73 285.27
  L 150.60 293.00"
/>
</g>
<path fill="#ffef92" d="
  M 150.53 0.00
  L 151.56 0.00
  Q 151.75 0.58 152.02 0.75
  Q 170.33 12.15 188.27 24.14
  Q 195.02 28.65 201.50 34.28
  Q 232.70 61.36 264.19 88.17
  Q 267.27 90.80 269.54 94.07
  Q 283.17 113.63 295.85 133.89
  Q 296.14 134.36 295.86 134.83
  L 293.03 139.52
  L 293.05 138.38
  A 0.57 0.49 63.9 0 1 293.12 138.11
  L 295.00 135.12
  A 0.83 0.82 44.7 0 0 294.99 134.22
  L 267.76 92.95
  L 228.88 59.17
  L 203.03 37.01
  Q 197.32 31.31 191.28 27.23
  Q 174.36 15.79 157.07 4.94
  L 151.44 1.22
  Q 150.99 0.92 150.53 1.20
  L 147.75 2.89
  Q 129.84 14.60 112.06 26.06
  Q 105.71 30.16 97.40 37.88
  L 62.12 68.67
  Q 49.80 79.13 38.02 89.77
  Q 37.57 90.17 36.72 89.93
  Q 38.17 88.51 39.67 87.19
  Q 69.99 60.50 100.43 33.93
  C 103.71 31.07 106.93 28.32 110.65 25.88
  Q 130.55 12.85 150.53 0.00
  Z"
/>
<path fill="#f0ad2c" d="
  M 157.07 4.94
  Q 155.85 6.06 156.31 7.19
  Q 163.99 25.74 171.35 43.59
  L 151.33 55.10
  C 137.51 54.43 125.57 63.04 119.25 74.72
  Q 118.28 74.49 117.42 75.21
  Q 117.20 75.33 116.98 75.45
  Q 116.92 73.63 117.19 73.56
  Q 133.17 37.54 147.56 7.81
  Q 148.98 4.88 147.75 2.89
  L 150.53 1.20
  Q 150.99 0.92 151.44 1.22
  L 157.07 4.94
  Z"
/>
<path fill="#f7be3b" d="
  M 147.75 2.89
  Q 148.98 4.88 147.56 7.81
  Q 133.17 37.54 117.19 73.56
  L 116.21 72.87
  Q 115.80 72.59 115.58 72.14
  Q 108.44 57.72 101.63 43.14
  C 101.13 42.06 99.97 41.21 99.96 39.63
  A 1.41 1.39 25.6 0 0 99.64 38.74
  Q 98.91 37.85 97.40 37.88
  Q 105.71 30.16 112.06 26.06
  Q 129.84 14.60 147.75 2.89
  Z"
/>
<path fill="#f7be3b" d="
  M 157.07 4.94
  Q 174.36 15.79 191.28 27.23
  Q 197.32 31.31 203.03 37.01
  L 196.16 34.90
  A 0.83 0.81 -68.4 0 0 195.19 35.33
  C 194.29 37.17 192.71 36.97 191.64 38.10
  C 190.67 39.14 190.23 40.49 189.20 41.40
  Q 183.77 46.22 176.87 48.57
  Q 176.40 48.72 176.05 49.07
  L 175.70 49.43
  A 1.59 1.59 0.0 0 1 173.06 48.80
  L 171.35 43.59
  Q 163.99 25.74 156.31 7.19
  Q 155.85 6.06 157.07 4.94
  Z"
/>
<path fill="#fdc72f" d="
  M 203.03 37.01
  L 228.88 59.17
  Q 228.04 60.70 228.12 61.88
  Q 227.39 58.92 225.65 57.62
  Q 225.24 57.31 224.85 57.65
  Q 221.87 60.22 219.56 60.84
  C 215.79 61.84 211.34 66.60 208.94 69.24
  C 204.49 74.14 197.02 81.86 191.62 83.58
  Q 191.11 83.75 191.07 84.28
  Q 190.98 85.67 190.14 86.26
  C 185.50 68.28 170.79 53.82 151.33 55.10
  L 171.35 43.59
  L 173.06 48.80
  A 1.59 1.59 0.0 0 0 175.70 49.43
  L 176.05 49.07
  Q 176.40 48.72 176.87 48.57
  Q 183.77 46.22 189.20 41.40
  C 190.23 40.49 190.67 39.14 191.64 38.10
  C 192.71 36.97 194.29 37.17 195.19 35.33
  A 0.83 0.81 -68.4 0 1 196.16 34.90
  L 203.03 37.01
  Z"
/>
<path fill="#fdc72f" d="
  M 97.40 37.88
  Q 98.91 37.85 99.64 38.74
  A 1.41 1.39 25.6 0 1 99.96 39.63
  C 99.97 41.21 101.13 42.06 101.63 43.14
  Q 108.44 57.72 115.58 72.14
  Q 115.80 72.59 116.21 72.87
  L 117.19 73.56
  Q 116.92 73.63 116.98 75.45
  Q 116.15 74.86 115.89 74.02
  A 1.42 1.42 0.0 0 0 113.86 73.19
  Q 112.87 73.72 113.00 75.02
  Q 113.05 75.54 112.70 75.92
  C 109.84 79.13 106.80 78.71 103.58 80.02
  C 101.47 80.87 99.79 81.85 97.43 82.24
  Q 96.21 82.44 95.19 83.24
  A 0.85 0.84 40.2 0 1 94.25 83.31
  Q 92.80 82.49 91.94 83.69
  Q 91.63 84.12 91.12 84.26
  L 75.43 88.75
  L 62.12 68.67
  L 97.40 37.88
  Z"
/>
<path fill="#ffffff" d="
  M 151.33 55.10
  C 170.79 53.82 185.50 68.28 190.14 86.26
  Q 192.92 99.89 186.92 113.29
  Q 183.85 118.64 179.03 123.58
  L 173.60 117.65
  Q 157.86 100.79 142.33 83.80
  C 140.93 82.27 139.18 81.71 137.42 80.42
  L 116.66 108.80
  Q 114.19 102.48 114.29 96.03
  Q 113.99 84.49 119.25 74.72
  C 125.57 63.04 137.51 54.43 151.33 55.10
  Z"
/>
<path fill="#ffd43a" d="
  M 228.12 61.88
  L 226.32 92.55
  L 226.32 119.14
  Q 222.41 117.22 218.61 116.92
  Q 217.99 116.87 218.08 117.48
  L 218.43 120.02
  Q 218.48 120.39 218.11 120.37
  Q 214.39 120.21 212.53 123.36
  C 211.70 124.78 210.23 125.95 210.21 128.04
  Q 210.20 128.59 209.69 128.81
  Q 208.12 129.50 208.82 131.44
  A 0.23 0.23 0.0 0 1 208.41 131.63
  L 194.21 108.98
  A 1.19 1.19 0.0 0 0 192.45 108.70
  L 186.92 113.29
  Q 192.92 99.89 190.14 86.26
  Q 190.98 85.67 191.07 84.28
  Q 191.11 83.75 191.62 83.58
  C 197.02 81.86 204.49 74.14 208.94 69.24
  C 211.34 66.60 215.79 61.84 219.56 60.84
  Q 221.87 60.22 224.85 57.65
  Q 225.24 57.31 225.65 57.62
  Q 227.39 58.92 228.12 61.88
  Z"
/>
<path fill="#f7be3b" d="
  M 228.88 59.17
  L 267.76 92.95
  Q 265.80 92.67 261.25 93.03
  Q 255.84 93.45 237.83 91.72
  C 235.26 91.47 232.25 92.00 229.33 91.45
  A 1.50 1.49 37.5 0 0 228.41 91.57
  L 226.32 92.55
  L 228.12 61.88
  Q 228.04 60.70 228.88 59.17
  Z"
/>
<path fill="#f7be3b" d="
  M 62.12 68.67
  L 75.43 88.75
  Q 75.14 89.66 75.22 90.27
  L 75.01 90.00
  Q 74.78 89.70 74.41 89.78
  Q 58.02 93.39 41.49 96.29
  Q 40.84 96.40 37.21 97.42
  Q 33.41 98.50 32.70 95.97
  Q 34.94 93.55 35.01 91.70
  L 36.72 89.93
  Q 37.57 90.17 38.02 89.77
  Q 49.80 79.13 62.12 68.67
  Z"
/>
<path fill="#ffd43a" d="
  M 116.98 75.45
  Q 117.20 75.33 117.42 75.21
  C 115.60 77.13 113.97 78.49 112.56 80.86
  Q 110.15 84.88 104.79 92.30
  Q 103.65 93.88 102.49 94.50
  A 0.99 0.98 -41.5 0 1 101.47 94.44
  C 99.23 92.90 97.35 93.70 95.30 93.20
  Q 93.12 92.67 91.01 91.89
  C 89.50 91.33 88.20 91.73 86.70 91.21
  C 83.36 90.06 80.14 89.83 77.54 92.39
  L 75.66 90.82
  L 75.22 90.27
  Q 75.14 89.66 75.43 88.75
  L 91.12 84.26
  Q 91.63 84.12 91.94 83.69
  Q 92.80 82.49 94.25 83.31
  A 0.85 0.84 40.2 0 0 95.19 83.24
  Q 96.21 82.44 97.43 82.24
  C 99.79 81.85 101.47 80.87 103.58 80.02
  C 106.80 78.71 109.84 79.13 112.70 75.92
  Q 113.05 75.54 113.00 75.02
  Q 112.87 73.72 113.86 73.19
  A 1.42 1.42 0.0 0 1 115.89 74.02
  Q 116.15 74.86 116.98 75.45
  Z"
/>
<path fill="#fdc72f" d="
  M 119.25 74.72
  Q 113.99 84.49 114.29 96.03
  L 104.76 94.84
  Q 104.20 94.77 103.94 95.28
  L 89.84 123.58
  A 1.16 1.15 -43.4 0 0 89.81 124.53
  Q 90.52 126.18 89.37 126.43
  Q 89.92 125.85 89.04 125.49
  A 0.62 0.61 35.0 0 0 88.38 125.60
  L 65.90 146.16
  Q 65.49 146.54 65.43 147.08
  Q 65.36 147.68 65.53 148.25
  L 65.00 148.05
  Q 64.48 147.86 64.23 148.35
  C 60.03 156.71 54.47 165.48 50.85 174.37
  A 0.76 0.76 0.0 0 1 50.45 174.77
  Q 50.15 174.90 49.98 175.21
  Q 46.52 181.53 44.39 188.42
  Q 44.24 188.90 43.83 189.19
  C 41.17 191.06 39.14 195.09 35.84 190.60
  Q 34.41 189.50 34.19 189.06
  Q 23.59 168.25 13.88 148.18
  Q 34.31 133.91 55.36 121.39
  C 56.14 120.92 56.85 119.73 58.00 119.99
  C 61.95 120.88 66.05 120.92 69.32 121.50
  Q 75.12 122.51 81.00 122.99
  Q 81.66 123.05 82.15 122.67
  Q 82.70 122.25 82.01 122.25
  L 81.00 122.25
  A 0.26 0.26 0.0 0 1 80.81 121.81
  L 81.04 121.59
  A 1.01 1.00 19.9 0 1 81.67 121.30
  L 83.71 121.18
  A 0.62 0.62 0.0 0 0 84.26 120.38
  Q 83.44 117.73 85.95 117.23
  A 0.83 0.83 0.0 0 1 86.90 117.80
  L 87.14 118.57
  A 0.24 0.24 0.0 0 0 87.59 118.43
  C 85.86 112.63 83.26 107.01 81.27 101.47
  Q 79.65 96.96 77.54 92.39
  C 80.14 89.83 83.36 90.06 86.70 91.21
  C 88.20 91.73 89.50 91.33 91.01 91.89
  Q 93.12 92.67 95.30 93.20
  C 97.35 93.70 99.23 92.90 101.47 94.44
  A 0.99 0.98 -41.5 0 0 102.49 94.50
  Q 103.65 93.88 104.79 92.30
  Q 110.15 84.88 112.56 80.86
  C 113.97 78.49 115.60 77.13 117.42 75.21
  Q 118.28 74.49 119.25 74.72
  Z"
/>
<path fill="#0a2d5c" d="
  M 137.42 80.42
  L 135.12 93.94
  Q 135.03 94.44 135.34 94.85
  L 157.75 125.27
  L 165.42 135.56
  Q 175.78 150.23 178.81 153.69
  Q 182.17 157.51 192.15 164.99
  L 209.07 178.81
  L 246.69 208.74
  Q 240.46 215.35 231.91 222.16
  L 226.50 218.30
  Q 219.44 214.22 214.44 209.46
  Q 212.63 205.32 209.22 201.74
  L 186.48 172.34
  L 169.01 149.47
  L 159.90 137.90
  L 148.95 124.00
  L 139.81 112.57
  Q 139.44 112.11 138.96 112.45
  L 136.42 114.24
  Q 135.92 114.59 136.21 115.12
  L 141.55 124.99
  L 152.10 143.43
  L 156.99 152.16
  L 170.77 175.77
  L 185.41 200.16
  L 189.23 206.66
  L 182.23 206.30
  L 174.43 194.47
  L 156.09 165.33
  L 147.38 151.50
  L 141.85 142.80
  Q 138.06 136.70 134.20 130.84
  Q 133.64 129.99 132.85 129.62
  Q 131.32 128.91 130.93 129.55
  L 112.01 157.58
  L 92.69 186.44
  L 80.44 204.55
  L 69.10 221.86
  Q 54.82 209.04 40.69 196.06
  Q 39.37 194.86 39.22 194.07
  Q 55.86 183.26 72.47 172.54
  Q 74.49 171.24 75.76 169.21
  Q 86.59 151.96 97.49 134.74
  Q 101.08 129.09 116.66 108.80
  L 137.42 80.42
  Z"
/>
<path fill="#87d3c6" d="
  M 137.42 80.42
  C 139.18 81.71 140.93 82.27 142.33 83.80
  Q 157.86 100.79 173.60 117.65
  Q 171.39 120.00 166.42 119.77
  Q 162.33 119.57 158.04 120.09
  A 1.23 1.22 -31.4 0 0 157.50 122.32
  Q 158.31 122.87 158.86 124.36
  Q 159.19 125.24 157.75 125.27
  L 135.34 94.85
  Q 135.03 94.44 135.12 93.94
  L 137.42 80.42
  Z"
/>
<path fill="#f0ad2c" d="
  M 75.22 90.27
  L 75.66 90.82
  L 73.46 99.21
  Q 73.33 99.71 72.97 100.07
  C 72.15 100.88 71.39 101.69 70.78 102.68
  Q 65.68 110.95 58.90 118.12
  Q 58.00 119.07 58.00 117.76
  L 58.00 116.00
  Q 58.00 115.75 57.75 115.75
  Q 57.61 115.75 57.46 115.73
  A 0.21 0.20 -78.3 0 0 57.24 115.88
  L 56.88 117.23
  Q 56.66 118.05 55.91 117.65
  L 45.82 112.24
  Q 45.31 111.97 44.75 112.12
  Q 43.70 112.40 43.27 111.42
  Q 43.05 110.91 42.49 110.90
  Q 39.94 110.81 38.12 112.48
  Q 37.74 112.83 37.25 112.95
  Q 34.85 113.51 33.46 115.57
  Q 33.19 115.97 32.77 116.20
  L 30.36 117.50
  Q 30.02 117.67 29.65 117.61
  L 28.87 117.47
  Q 28.37 117.39 28.21 117.87
  Q 27.48 120.09 25.17 120.04
  A 0.92 0.92 0.0 0 0 24.31 120.60
  L 23.81 121.82
  Q 23.55 122.43 22.89 122.54
  Q 20.72 122.88 20.99 124.92
  Q 21.06 125.48 20.53 125.66
  Q 17.88 126.60 16.34 129.03
  C 15.13 130.93 12.70 131.85 12.17 134.61
  A 1.16 1.13 80.9 0 1 11.62 135.39
  Q 8.86 137.00 10.94 139.69
  Q 11.01 139.78 10.96 139.88
  L 10.77 140.20
  Q 10.65 140.39 10.52 140.21
  Q 10.28 139.87 9.97 140.06
  L 7.57 134.94
  Q 7.34 134.44 7.64 133.98
  L 32.70 95.97
  Q 33.41 98.50 37.21 97.42
  Q 40.84 96.40 41.49 96.29
  Q 58.02 93.39 74.41 89.78
  Q 74.78 89.70 75.01 90.00
  L 75.22 90.27
  Z"
/>
<path fill="#f7be3b" d="
  M 75.66 90.82
  L 77.54 92.39
  Q 79.65 96.96 81.27 101.47
  C 83.26 107.01 85.86 112.63 87.59 118.43
  A 0.24 0.24 0.0 0 1 87.14 118.57
  L 86.90 117.80
  A 0.83 0.83 0.0 0 0 85.95 117.23
  Q 83.44 117.73 84.26 120.38
  A 0.62 0.62 0.0 0 1 83.71 121.18
  L 81.67 121.30
  A 1.01 1.00 19.9 0 0 81.04 121.59
  L 80.81 121.81
  A 0.26 0.26 0.0 0 0 81.00 122.25
  L 82.01 122.25
  Q 82.70 122.25 82.15 122.67
  Q 81.66 123.05 81.00 122.99
  Q 75.12 122.51 69.32 121.50
  C 66.05 120.92 61.95 120.88 58.00 119.99
  C 56.85 119.73 56.14 120.92 55.36 121.39
  Q 34.31 133.91 13.88 148.18
  L 9.97 140.06
  Q 10.28 139.87 10.52 140.21
  Q 10.65 140.39 10.77 140.20
  L 10.96 139.88
  Q 11.01 139.78 10.94 139.69
  Q 8.86 137.00 11.62 135.39
  A 1.16 1.13 80.9 0 0 12.17 134.61
  C 12.70 131.85 15.13 130.93 16.34 129.03
  Q 17.88 126.60 20.53 125.66
  Q 21.06 125.48 20.99 124.92
  Q 20.72 122.88 22.89 122.54
  Q 23.55 122.43 23.81 121.82
  L 24.31 120.60
  A 0.92 0.92 0.0 0 1 25.17 120.04
  Q 27.48 120.09 28.21 117.87
  Q 28.37 117.39 28.87 117.47
  L 29.65 117.61
  Q 30.02 117.67 30.36 117.50
  L 32.77 116.20
  Q 33.19 115.97 33.46 115.57
  Q 34.85 113.51 37.25 112.95
  Q 37.74 112.83 38.12 112.48
  Q 39.94 110.81 42.49 110.90
  Q 43.05 110.91 43.27 111.42
  Q 43.70 112.40 44.75 112.12
  Q 45.31 111.97 45.82 112.24
  L 55.91 117.65
  Q 56.66 118.05 56.88 117.23
  L 57.24 115.88
  A 0.21 0.20 -78.3 0 1 57.46 115.73
  Q 57.61 115.75 57.75 115.75
  Q 58.00 115.75 58.00 116.00
  L 58.00 117.76
  Q 58.00 119.07 58.90 118.12
  Q 65.68 110.95 70.78 102.68
  C 71.39 101.69 72.15 100.88 72.97 100.07
  Q 73.33 99.71 73.46 99.21
  L 75.66 90.82
  Z"
/>
<path fill="#fdc72f" d="
  M 267.76 92.95
  L 294.99 134.22
  A 0.83 0.82 44.7 0 1 295.00 135.12
  L 293.12 138.11
  A 0.57 0.49 63.9 0 0 293.05 138.38
  L 293.03 139.52
  Q 292.49 141.07 291.52 142.12
  Q 289.10 144.22 287.57 147.38
  A 0.79 0.79 0.0 0 1 286.73 147.81
  Q 285.60 147.62 285.48 146.42
  Q 285.44 145.97 284.99 146.01
  L 275.54 146.84
  Q 275.08 146.89 274.73 147.19
  L 267.71 153.45
  Q 267.33 153.78 266.83 153.86
  C 264.07 154.26 257.72 153.99 256.07 156.57
  Q 253.40 160.73 249.51 163.89
  A 0.49 0.48 -15.7 0 1 248.72 163.45
  L 248.87 162.37
  Q 248.93 161.92 248.59 161.63
  Q 246.78 160.01 245.23 156.79
  Q 239.20 144.20 226.21 120.15
  L 226.32 119.14
  L 226.32 92.55
  L 228.41 91.57
  A 1.50 1.49 37.5 0 1 229.33 91.45
  C 232.25 92.00 235.26 91.47 237.83 91.72
  Q 255.84 93.45 261.25 93.03
  Q 265.80 92.67 267.76 92.95
  Z"
/>
<path fill="#ffef92" d="
  M 35.01 91.70
  Q 34.94 93.55 32.70 95.97
  L 7.64 133.98
  Q 7.34 134.44 7.57 134.94
  L 9.97 140.06
  L 13.88 148.18
  Q 23.59 168.25 34.19 189.06
  Q 34.41 189.50 35.84 190.60
  Q 35.15 190.79 35.17 191.31
  C 34.37 190.67 33.73 190.26 33.24 189.32
  Q 19.33 162.26 6.46 134.74
  Q 6.25 134.28 6.52 133.87
  Q 18.86 115.03 31.33 96.30
  Q 32.92 93.91 35.01 91.70
  Z"
/>
<path fill="#ffd43a" d="
  M 114.29 96.03
  Q 114.19 102.48 116.66 108.80
  Q 101.08 129.09 97.49 134.74
  Q 86.59 151.96 75.76 169.21
  Q 74.49 171.24 72.47 172.54
  Q 55.86 183.26 39.22 194.07
  L 38.03 194.27
  Q 37.03 192.57 35.17 191.31
  Q 35.15 190.79 35.84 190.60
  C 39.14 195.09 41.17 191.06 43.83 189.19
  Q 44.24 188.90 44.39 188.42
  Q 46.52 181.53 49.98 175.21
  Q 50.15 174.90 50.45 174.77
  A 0.76 0.76 0.0 0 0 50.85 174.37
  C 54.47 165.48 60.03 156.71 64.23 148.35
  Q 64.48 147.86 65.00 148.05
  L 65.53 148.25
  L 71.18 170.00
  A 1.02 1.01 66.7 0 0 72.70 170.61
  Q 73.34 170.21 73.28 169.67
  Q 73.24 169.23 73.54 168.91
  Q 75.83 166.55 77.22 162.48
  Q 83.37 144.47 89.37 126.43
  Q 90.52 126.18 89.81 124.53
  A 1.16 1.15 -43.4 0 1 89.84 123.58
  L 103.94 95.28
  Q 104.20 94.77 104.76 94.84
  L 114.29 96.03
  Z"
/>
<path fill="#ffef92" d="
  M 226.32 119.14
  L 226.21 120.15
  L 226.19 159.80
  Q 215.54 154.58 204.95 149.17
  C 199.62 146.44 195.08 140.59 191.00 136.25
  L 179.03 123.58
  Q 183.85 118.64 186.92 113.29
  L 192.45 108.70
  A 1.19 1.19 0.0 0 1 194.21 108.98
  L 208.41 131.63
  A 0.23 0.23 0.0 0 0 208.82 131.44
  Q 208.12 129.50 209.69 128.81
  Q 210.20 128.59 210.21 128.04
  C 210.23 125.95 211.70 124.78 212.53 123.36
  Q 214.39 120.21 218.11 120.37
  Q 218.48 120.39 218.43 120.02
  L 218.08 117.48
  Q 217.99 116.87 218.61 116.92
  Q 222.41 117.22 226.32 119.14
  Z"
/>
<path fill="#87d3c6" d="
  M 148.95 124.00
  L 145.48 123.41
  Q 144.83 123.30 144.36 123.76
  L 143.76 124.36
  Q 143.63 124.50 143.48 124.37
  Q 143.15 124.09 142.95 124.10
  A 0.18 0.18 0.0 0 0 142.79 124.37
  L 142.99 124.71
  A 0.19 0.19 0.0 0 1 142.83 124.99
  L 141.55 124.99
  L 136.21 115.12
  Q 135.92 114.59 136.42 114.24
  L 138.96 112.45
  Q 139.44 112.11 139.81 112.57
  L 148.95 124.00
  Z"
/>
<path fill="#6ec7c5" d="
  M 173.60 117.65
  L 179.03 123.58
  L 191.00 136.25
  Q 181.81 134.43 177.25 134.69
  Q 171.20 135.03 168.14 134.67
  Q 167.67 134.61 167.30 134.90
  Q 166.57 135.47 165.42 135.56
  L 157.75 125.27
  Q 159.19 125.24 158.86 124.36
  Q 158.31 122.87 157.50 122.32
  A 1.23 1.22 -31.4 0 1 158.04 120.09
  Q 162.33 119.57 166.42 119.77
  Q 171.39 120.00 173.60 117.65
  Z"
/>
<path fill="#ffd43a" d="
  M 226.21 120.15
  Q 239.20 144.20 245.23 156.79
  Q 246.78 160.01 248.59 161.63
  Q 248.93 161.92 248.87 162.37
  L 248.72 163.45
  A 0.49 0.48 -15.7 0 0 249.51 163.89
  Q 253.40 160.73 256.07 156.57
  C 257.72 153.99 264.07 154.26 266.83 153.86
  Q 267.33 153.78 267.71 153.45
  L 274.73 147.19
  Q 275.08 146.89 275.54 146.84
  L 284.99 146.01
  Q 285.44 145.97 285.48 146.42
  Q 285.60 147.62 286.73 147.81
  A 0.79 0.79 0.0 0 0 287.57 147.38
  Q 289.10 144.22 291.52 142.12
  Q 280.50 161.56 268.33 179.81
  Q 266.71 179.94 266.98 180.20
  L 257.53 175.65
  L 228.80 161.14
  L 226.19 159.80
  L 226.21 120.15
  Z"
/>
<path fill="#6ec7c5" d="
  M 148.95 124.00
  L 159.90 137.90
  Q 156.32 137.03 151.73 138.01
  A 1.02 1.02 0.0 0 0 151.10 139.59
  Q 152.51 141.61 152.10 143.43
  L 141.55 124.99
  L 142.83 124.99
  A 0.19 0.19 0.0 0 0 142.99 124.71
  L 142.79 124.37
  A 0.18 0.18 0.0 0 1 142.95 124.10
  Q 143.15 124.09 143.48 124.37
  Q 143.63 124.50 143.76 124.36
  L 144.36 123.76
  Q 144.83 123.30 145.48 123.41
  L 148.95 124.00
  Z"
/>
<path fill="#f7be3b" d="
  M 89.37 126.43
  Q 83.37 144.47 77.22 162.48
  Q 75.83 166.55 73.54 168.91
  Q 73.24 169.23 73.28 169.67
  Q 73.34 170.21 72.70 170.61
  A 1.02 1.01 66.7 0 1 71.18 170.00
  L 65.53 148.25
  Q 65.36 147.68 65.43 147.08
  Q 65.49 146.54 65.90 146.16
  L 88.38 125.60
  A 0.62 0.61 35.0 0 1 89.04 125.49
  Q 89.92 125.85 89.37 126.43
  Z"
/>
<path fill="#6ec7c5" d="
  M 141.85 142.80
  Q 140.60 143.65 139.61 141.05
  Q 139.42 140.54 138.97 140.23
  Q 137.30 139.06 136.60 137.18
  A 0.56 0.31 42.0 0 0 135.72 136.98
  Q 135.95 137.72 135.49 138.01
  Q 135.05 138.30 135.04 138.82
  Q 135.01 140.09 133.68 140.56
  Q 133.21 140.72 133.39 140.26
  L 134.36 137.70
  Q 134.49 137.35 134.33 137.02
  Q 134.11 136.54 133.64 136.49
  A 0.26 0.26 0.0 0 0 133.48 136.97
  L 133.81 137.17
  Q 134.11 137.34 133.91 137.64
  Q 133.18 138.75 131.88 139.37
  L 130.93 129.55
  Q 131.32 128.91 132.85 129.62
  Q 133.64 129.99 134.20 130.84
  Q 138.06 136.70 141.85 142.80
  Z"
/>
<path fill="#198bac" d="
  M 130.93 129.55
  L 131.88 139.37
  L 132.81 151.23
  Q 132.57 154.85 134.01 157.05
  Q 132.82 158.26 132.46 160.46
  Q 130.43 161.39 129.48 160.20
  Q 129.43 160.13 129.39 160.21
  Q 129.31 160.35 129.18 160.41
  Q 128.41 160.78 128.38 160.78
  Q 119.92 160.22 112.01 157.58
  L 130.93 129.55
  Z"
/>
<path fill="#59b9c2" d="
  M 191.00 136.25
  C 195.08 140.59 199.62 146.44 204.95 149.17
  Q 215.54 154.58 226.19 159.80
  L 228.80 161.14
  Q 227.67 161.45 226.53 160.78
  Q 226.13 160.54 225.92 160.96
  Q 224.99 162.81 222.98 162.26
  C 219.35 161.26 216.85 162.00 213.75 161.41
  C 206.15 159.96 199.33 161.73 191.74 161.50
  A 0.48 0.48 0.0 0 0 191.27 162.12
  L 192.15 164.99
  Q 182.17 157.51 178.81 153.69
  Q 175.78 150.23 165.42 135.56
  Q 166.57 135.47 167.30 134.90
  Q 167.67 134.61 168.14 134.67
  Q 171.20 135.03 177.25 134.69
  Q 181.81 134.43 191.00 136.25
  Z"
/>
<path fill="#59b9c2" d="
  M 141.85 142.80
  L 147.38 151.50
  C 145.89 151.95 144.94 149.92 143.55 149.38
  Q 143.05 149.19 143.01 149.72
  L 142.96 150.40
  A 0.34 0.34 0.0 0 1 142.29 150.43
  Q 142.05 149.06 140.72 148.55
  Q 140.02 148.28 139.66 148.93
  Q 139.05 150.02 138.02 149.63
  A 0.58 0.57 -60.2 0 0 137.38 149.81
  L 135.97 151.51
  Q 135.57 152.00 135.31 151.43
  Q 135.17 151.13 135.41 150.96
  Q 135.76 150.71 135.36 150.55
  Q 134.71 150.29 134.47 150.78
  Q 134.24 151.26 133.72 151.25
  L 132.81 151.23
  L 131.88 139.37
  Q 133.18 138.75 133.91 137.64
  Q 134.11 137.34 133.81 137.17
  L 133.48 136.97
  A 0.26 0.26 0.0 0 1 133.64 136.49
  Q 134.11 136.54 134.33 137.02
  Q 134.49 137.35 134.36 137.70
  L 133.39 140.26
  Q 133.21 140.72 133.68 140.56
  Q 135.01 140.09 135.04 138.82
  Q 135.05 138.30 135.49 138.01
  Q 135.95 137.72 135.72 136.98
  A 0.56 0.31 42.0 0 1 136.60 137.18
  Q 137.30 139.06 138.97 140.23
  Q 139.42 140.54 139.61 141.05
  Q 140.60 143.65 141.85 142.80
  Z"
/>
<path fill="#59b9c2" d="
  M 159.90 137.90
  L 169.01 149.47
  Q 168.32 149.90 167.44 149.71
  A 0.89 0.88 83.0 0 1 166.82 149.22
  Q 166.54 148.64 165.95 148.57
  C 164.47 148.39 162.80 150.21 160.05 149.64
  A 1.00 0.99 -62.5 0 0 159.13 149.93
  L 156.99 152.16
  L 152.10 143.43
  Q 152.51 141.61 151.10 139.59
  A 1.02 1.02 0.0 0 1 151.73 138.01
  Q 156.32 137.03 159.90 137.90
  Z"
/>
<path fill="#38a2ba" d="
  M 147.38 151.50
  L 156.09 165.33
  Q 150.20 167.88 143.56 167.73
  A 1.45 1.43 -63.5 0 0 142.63 168.05
  Q 141.13 169.24 139.49 169.63
  L 134.01 157.05
  Q 132.57 154.85 132.81 151.23
  L 133.72 151.25
  Q 134.24 151.26 134.47 150.78
  Q 134.71 150.29 135.36 150.55
  Q 135.76 150.71 135.41 150.96
  Q 135.17 151.13 135.31 151.43
  Q 135.57 152.00 135.97 151.51
  L 137.38 149.81
  A 0.58 0.57 -60.2 0 1 138.02 149.63
  Q 139.05 150.02 139.66 148.93
  Q 140.02 148.28 140.72 148.55
  Q 142.05 149.06 142.29 150.43
  A 0.34 0.34 0.0 0 0 142.96 150.40
  L 143.01 149.72
  Q 143.05 149.19 143.55 149.38
  C 144.94 149.92 145.89 151.95 147.38 151.50
  Z"
/>
<path fill="#38a2ba" d="
  M 169.01 149.47
  L 186.48 172.34
  L 173.34 173.46
  A 1.11 1.09 -70.5 0 0 172.60 173.82
  L 170.77 175.77
  L 156.99 152.16
  L 159.13 149.93
  A 1.00 0.99 -62.5 0 1 160.05 149.64
  C 162.80 150.21 164.47 148.39 165.95 148.57
  Q 166.54 148.64 166.82 149.22
  A 0.89 0.88 83.0 0 0 167.44 149.71
  Q 168.32 149.90 169.01 149.47
  Z"
/>
<path fill="#01739c" d="
  M 112.01 157.58
  Q 119.92 160.22 128.38 160.78
  Q 128.41 160.78 129.18 160.41
  Q 129.31 160.35 129.39 160.21
  Q 129.43 160.13 129.48 160.20
  Q 130.43 161.39 132.46 160.46
  L 122.42 188.62
  Q 120.49 190.22 121.75 185.69
  A 0.55 0.55 0.0 0 0 121.30 185.00
  Q 120.54 184.90 120.14 185.47
  Q 119.83 185.91 119.29 185.95
  Q 111.61 186.47 104.01 187.54
  Q 101.04 187.96 92.69 186.44
  L 112.01 157.58
  Z"
/>
<path fill="#0a2d5c" d="
  M 134.01 157.05
  L 139.49 169.63
  L 151.12 195.80
  L 158.67 212.83
  L 159.35 215.90
  Q 159.47 216.41 159.91 216.68
  L 183.87 231.65
  L 205.61 245.16
  L 184.75 263.35
  L 181.49 258.43
  L 168.13 237.80
  L 156.70 220.01
  Q 156.38 219.51 155.82 219.32
  L 153.22 218.44
  A 0.43 0.43 0.0 0 0 152.68 218.99
  L 152.84 219.42
  L 152.18 219.65
  Q 151.72 219.81 151.48 220.24
  L 134.14 252.47
  L 124.19 271.58
  L 99.89 249.74
  L 117.00 203.71
  L 122.42 188.62
  L 132.46 160.46
  Q 132.82 158.26 134.01 157.05
  Z"
/>
<path fill="#38a2ba" d="
  M 228.80 161.14
  L 257.53 175.65
  Q 256.91 175.73 256.50 176.22
  Q 255.97 176.85 256.72 177.18
  L 257.07 177.33
  A 0.45 0.45 0.0 0 1 257.17 178.09
  Q 255.79 179.22 254.07 178.66
  Q 253.54 178.49 252.98 178.52
  Q 250.75 178.62 248.07 177.97
  C 242.14 176.53 234.98 177.24 230.46 177.15
  Q 222.88 176.99 215.33 177.18
  C 213.04 177.24 211.19 178.02 209.07 178.81
  L 192.15 164.99
  L 191.27 162.12
  A 0.48 0.48 0.0 0 1 191.74 161.50
  C 199.33 161.73 206.15 159.96 213.75 161.41
  C 216.85 162.00 219.35 161.26 222.98 162.26
  Q 224.99 162.81 225.92 160.96
  Q 226.13 160.54 226.53 160.78
  Q 227.67 161.45 228.80 161.14
  Z"
/>
<path fill="#198bac" d="
  M 156.09 165.33
  L 174.43 194.47
  Q 163.12 195.82 152.00 195.21
  Q 151.54 195.18 151.12 195.80
  L 139.49 169.63
  Q 141.13 169.24 142.63 168.05
  A 1.45 1.43 -63.5 0 1 143.56 167.73
  Q 150.20 167.88 156.09 165.33
  Z"
/>
<path fill="#198bac" d="
  M 186.48 172.34
  L 209.22 201.74
  Q 208.82 202.08 207.71 201.37
  Q 207.19 201.04 206.93 200.48
  Q 205.27 196.91 201.48 199.31
  A 1.96 1.96 0.0 0 1 200.28 199.61
  Q 197.66 199.38 195.35 200.36
  Q 195.04 200.48 194.92 200.18
  Q 194.50 199.21 193.48 199.44
  Q 190.44 200.16 188.28 199.10
  Q 187.82 198.87 187.36 199.11
  L 185.41 200.16
  L 170.77 175.77
  L 172.60 173.82
  A 1.11 1.09 -70.5 0 1 173.34 173.46
  L 186.48 172.34
  Z"
/>
<path fill="#198bac" d="
  M 257.53 175.65
  L 266.98 180.20
  L 246.69 208.74
  L 209.07 178.81
  C 211.19 178.02 213.04 177.24 215.33 177.18
  Q 222.88 176.99 230.46 177.15
  C 234.98 177.24 242.14 176.53 248.07 177.97
  Q 250.75 178.62 252.98 178.52
  Q 253.54 178.49 254.07 178.66
  Q 255.79 179.22 257.17 178.09
  A 0.45 0.45 0.0 0 0 257.07 177.33
  L 256.72 177.18
  Q 255.97 176.85 256.50 176.22
  Q 256.91 175.73 257.53 175.65
  Z"
/>
<path fill="#87d3c6" d="
  M 268.33 179.81
  Q 258.86 192.77 249.52 205.77
  Q 249.48 205.81 248.15 208.27
  C 247.36 209.73 246.19 210.23 245.28 211.23
  C 240.62 216.35 234.87 220.33 229.56 225.22
  C 214.47 239.08 198.22 251.76 183.31 265.80
  Q 173.57 274.97 160.30 285.61
  Q 159.76 285.48 159.73 285.27
  L 172.01 274.91
  L 184.75 263.35
  L 205.61 245.16
  L 231.91 222.16
  Q 240.46 215.35 246.69 208.74
  L 266.98 180.20
  Q 266.71 179.94 268.33 179.81
  Z"
/>
<path fill="#006894" d="
  M 122.42 188.62
  L 117.00 203.71
  Q 112.98 203.88 108.97 204.87
  C 102.90 206.37 97.66 206.41 91.75 206.78
  Q 87.66 207.03 80.44 204.55
  L 92.69 186.44
  Q 101.04 187.96 104.01 187.54
  Q 111.61 186.47 119.29 185.95
  Q 119.83 185.91 120.14 185.47
  Q 120.54 184.90 121.30 185.00
  A 0.55 0.55 0.0 0 1 121.75 185.69
  Q 120.49 190.22 122.42 188.62
  Z"
/>
<path fill="#01739c" d="
  M 174.43 194.47
  L 182.23 206.30
  L 158.67 212.83
  L 151.12 195.80
  Q 151.54 195.18 152.00 195.21
  Q 163.12 195.82 174.43 194.47
  Z"
/>
<path fill="#87d3c6" d="
  M 39.22 194.07
  Q 39.37 194.86 40.69 196.06
  Q 54.82 209.04 69.10 221.86
  L 99.89 249.74
  L 124.19 271.58
  L 149.49 293.00
  L 148.36 293.00
  C 136.77 283.10 124.78 273.36 113.61 263.28
  Q 79.14 232.18 44.81 200.94
  Q 40.25 196.78 38.03 194.27
  L 39.22 194.07
  Z"
/>
<path fill="#01739c" d="
  M 209.22 201.74
  Q 212.63 205.32 214.44 209.46
  L 189.23 206.66
  L 185.41 200.16
  L 187.36 199.11
  Q 187.82 198.87 188.28 199.10
  Q 190.44 200.16 193.48 199.44
  Q 194.50 199.21 194.92 200.18
  Q 195.04 200.48 195.35 200.36
  Q 197.66 199.38 200.28 199.61
  A 1.96 1.96 0.0 0 0 201.48 199.31
  Q 205.27 196.91 206.93 200.48
  Q 207.19 201.04 207.71 201.37
  Q 208.82 202.08 209.22 201.74
  Z"
/>
<path fill="#005582" d="
  M 117.00 203.71
  L 99.89 249.74
  L 69.10 221.86
  L 80.44 204.55
  Q 87.66 207.03 91.75 206.78
  C 97.66 206.41 102.90 206.37 108.97 204.87
  Q 112.98 203.88 117.00 203.71
  Z"
/>
<path fill="#198bac" d="
  M 182.23 206.30
  L 189.23 206.66
  L 214.44 209.46
  Q 219.44 214.22 226.50 218.30
  Q 220.99 221.50 215.09 221.13
  A 0.60 0.43 27.9 0 0 214.94 221.15
  L 210.04 222.77
  Q 209.47 222.96 208.97 223.31
  Q 206.15 225.32 202.58 224.75
  A 2.17 2.13 -51.0 0 0 201.45 224.88
  Q 195.82 227.14 189.73 227.64
  Q 189.14 227.69 188.73 228.11
  Q 187.49 229.39 185.75 229.55
  Q 185.25 229.60 184.97 230.02
  L 183.87 231.65
  L 159.91 216.68
  Q 159.47 216.41 159.35 215.90
  L 158.67 212.83
  L 182.23 206.30
  Z"
/>
<path fill="#01739c" d="
  M 226.50 218.30
  L 231.91 222.16
  L 205.61 245.16
  L 183.87 231.65
  L 184.97 230.02
  Q 185.25 229.60 185.75 229.55
  Q 187.49 229.39 188.73 228.11
  Q 189.14 227.69 189.73 227.64
  Q 195.82 227.14 201.45 224.88
  A 2.17 2.13 -51.0 0 1 202.58 224.75
  Q 206.15 225.32 208.97 223.31
  Q 209.47 222.96 210.04 222.77
  L 214.94 221.15
  A 0.60 0.43 27.9 0 1 215.09 221.13
  Q 220.99 221.50 226.50 218.30
  Z"
/>
<path fill="#38a2ba" d="
  M 168.13 237.80
  Q 167.15 239.21 165.27 238.51
  A 1.59 1.50 49.4 0 0 164.50 238.43
  Q 161.14 238.90 160.35 241.00
  L 152.84 219.42
  L 152.68 218.99
  A 0.43 0.43 0.0 0 1 153.22 218.44
  L 155.82 219.32
  Q 156.38 219.51 156.70 220.01
  L 168.13 237.80
  Z"
/>
<path fill="#005582" d="
  M 152.84 219.42
  L 160.35 241.00
  L 163.44 250.14
  Q 161.74 250.91 160.30 250.56
  A 0.45 0.44 6.7 0 0 159.75 250.99
  L 159.75 251.50
  Q 159.75 251.82 159.43 251.80
  Q 158.13 251.73 158.73 250.80
  A 0.34 0.34 0.0 0 0 158.19 250.40
  Q 157.00 251.81 155.47 251.15
  Q 154.90 250.90 154.41 251.29
  Q 153.57 251.96 152.44 251.77
  Q 151.86 251.67 151.49 252.14
  Q 150.13 253.90 147.70 253.13
  A 1.36 1.35 40.8 0 0 146.71 253.20
  Q 144.36 254.33 142.00 253.30
  Q 141.53 253.09 141.17 253.46
  L 140.69 253.93
  Q 140.27 254.36 140.03 253.80
  Q 139.70 253.01 138.90 253.16
  Q 138.31 253.28 138.56 253.83
  Q 139.08 254.99 137.64 255.32
  Q 137.07 255.45 137.03 254.86
  L 136.96 253.60
  A 0.42 0.42 0.0 0 0 136.12 253.58
  L 135.93 255.29
  A 0.51 0.50 80.5 0 1 135.65 255.69
  L 135.19 255.91
  A 0.43 0.43 0.0 0 1 134.59 255.43
  Q 134.95 253.85 134.14 252.47
  L 151.48 220.24
  Q 151.72 219.81 152.18 219.65
  L 152.84 219.42
  Z"
/>
<path fill="#198bac" d="
  M 168.13 237.80
  L 181.49 258.43
  Q 173.73 257.12 166.36 258.74
  L 163.44 250.14
  L 160.35 241.00
  Q 161.14 238.90 164.50 238.43
  A 1.59 1.50 49.4 0 1 165.27 238.51
  Q 167.15 239.21 168.13 237.80
  Z"
/>
<path fill="#014a78" d="
  M 163.44 250.14
  L 166.36 258.74
  L 172.01 274.91
  L 159.73 285.27
  L 150.60 293.00
  L 149.49 293.00
  L 124.19 271.58
  L 134.14 252.47
  Q 134.95 253.85 134.59 255.43
  A 0.43 0.43 0.0 0 0 135.19 255.91
  L 135.65 255.69
  A 0.51 0.50 80.5 0 0 135.93 255.29
  L 136.12 253.58
  A 0.42 0.42 0.0 0 1 136.96 253.60
  L 137.03 254.86
  Q 137.07 255.45 137.64 255.32
  Q 139.08 254.99 138.56 253.83
  Q 138.31 253.28 138.90 253.16
  Q 139.70 253.01 140.03 253.80
  Q 140.27 254.36 140.69 253.93
  L 141.17 253.46
  Q 141.53 253.09 142.00 253.30
  Q 144.36 254.33 146.71 253.20
  A 1.36 1.35 40.8 0 1 147.70 253.13
  Q 150.13 253.90 151.49 252.14
  Q 151.86 251.67 152.44 251.77
  Q 153.57 251.96 154.41 251.29
  Q 154.90 250.90 155.47 251.15
  Q 157.00 251.81 158.19 250.40
  A 0.34 0.34 0.0 0 1 158.73 250.80
  Q 158.13 251.73 159.43 251.80
  Q 159.75 251.82 159.75 251.50
  L 159.75 250.99
  A 0.45 0.44 6.7 0 1 160.30 250.56
  Q 161.74 250.91 163.44 250.14
  Z"
/>
<path fill="#01739c" d="
  M 181.49 258.43
  L 184.75 263.35
  L 172.01 274.91
  L 166.36 258.74
  Q 173.73 257.12 181.49 258.43
  Z"
/>
<path fill="#ffffff" d="
  M 159.73 285.27
  Q 159.76 285.48 160.30 285.61
  L 151.50 293.00
  L 150.60 293.00
  L 159.73 285.27
  Z"
/>
</svg>
